<?xml version="1.0" encoding="UTF-8" standalone="no"?>
<svg
   xmlns:dc="http://purl.org/dc/elements/1.1/"
   xmlns:cc="http://creativecommons.org/ns#"
   xmlns:rdf="http://www.w3.org/1999/02/22-rdf-syntax-ns#"
   xmlns:svg="http://www.w3.org/2000/svg"
   xmlns="http://www.w3.org/2000/svg"
   xmlns:sodipodi="http://sodipodi.sourceforge.net/DTD/sodipodi-0.dtd"
   xmlns:inkscape="http://www.inkscape.org/namespaces/inkscape"
   width="492px"
   height="160px"
   viewBox="0 0 492 160"
   version="1.1"
   id="SVGRoot"
   sodipodi:docname="BIDV.svg"
   inkscape:version="1.0.1 (3bc2e813f5, 2020-09-07)">
  <defs
     id="defs1520" />
  <sodipodi:namedview
     id="base"
     pagecolor="#ffffff"
     bordercolor="#666666"
     borderopacity="1.0"
     inkscape:pageopacity="0.0"
     inkscape:pageshadow="2"
     inkscape:zoom="1.374794"
     inkscape:cx="413.45683"
     inkscape:cy="56.721566"
     inkscape:document-units="px"
     inkscape:current-layer="layer1"
     inkscape:document-rotation="0"
     showgrid="false"
     inkscape:window-width="1920"
     inkscape:window-height="1001"
     inkscape:window-x="-9"
     inkscape:window-y="-9"
     inkscape:window-maximized="1" />
  <metadata
     id="metadata1523">
    <rdf:RDF>
      <cc:Work
         rdf:about="">
        <dc:format>image/svg+xml</dc:format>
        <dc:type
           rdf:resource="http://purl.org/dc/dcmitype/StillImage" />
        <dc:title></dc:title>
      </cc:Work>
    </rdf:RDF>
  </metadata>
  <g
     inkscape:label="Lớp 1"
     inkscape:groupmode="layer"
     id="layer1">
    <path
       id="rect855"
       style="fill:#21409a;fill-opacity:1;fill-rule:evenodd;stroke:none;stroke-width:0.222004;stroke-opacity:1"
       d="M 0.17905248,24.995032 V 136.00854 H 18.26654 25.26997 51.527521 c 0,0 22.6916,0.58256 32.886821,-9.70561 4.988964,-5.03441 9.126694,-12.38701 9.126694,-22.24223 0,0 1.313094,-20.860358 -25.090907,-24.653198 0,0 22.173406,-2.479139 22.173406,-24.944419 0,-22.628106 -22.61106,-29.468051 -41.867015,-29.468051 H 25.26997 18.559529 Z m 105.32321752,0 V 136.00854 h 25.23742 V 24.995032 Z m 37.92937,0 V 136.00854 h 19.69362 4.37537 18.08926 c 0,0 31.51066,1.89628 44.20207,-23.48654 12.69143,-25.382853 4.81309,-51.34848 4.81309,-51.34848 0,0 -5.98036,-36.178488 -51.78616,-36.178488 h -20.13135 z m 80.81653,0 43.32488,111.013508 H 291.2061 L 334.09503,24.995032 h -27.42598 l -27.42596,72.2105 -27.86194,-72.2105 z M 25.26997,42.062364 h 24.361969 c 0,0 16.350526,9.05e-4 16.483119,13.129653 0.145877,14.441937 -17.067514,14.587535 -24.653194,14.587535 -5.201052,0 -11.711237,-0.113212 -16.191894,-0.199441 z m 142.23066,0 H 178.004 c 0,0 34.2823,-0.874875 34.13643,38.220565 -0.14588,39.095441 -31.21892,39.096001 -31.21892,39.096001 H 167.50063 Z M 32.626404,90.461546 c 6.703783,-0.0401 15.227834,0.164242 22.506976,1.143698 6.073905,0.817293 10.261974,3.883852 12.003595,6.473953 0,0 5.397279,8.024913 -1.313133,15.464723 -5.738017,6.36173 -14.005096,5.83501 -14.005096,5.83501 H 25.26997 V 90.60981 c 1.975561,-0.06651 4.439023,-0.130793 7.356434,-0.148264 z" />
    <path
       style="fill:#ed1d24;fill-opacity:1;stroke:none;stroke-width:0.222004;stroke-linecap:butt;stroke-linejoin:miter;stroke-miterlimit:4;stroke-dasharray:none;stroke-opacity:1"
       d="M 412.57648,0.77954339 333.07311,79.991706 412.43175,159.20386 491.64216,79.991706 Z"
       id="path875" />
    <path
       style="fill:#ffffff;fill-opacity:1;stroke:none;stroke-width:0.222004;stroke-linecap:butt;stroke-linejoin:miter;stroke-miterlimit:4;stroke-dasharray:none;stroke-opacity:1"
       d="M 412.28526,6.9057805 485.6624,79.698711 412.28526,153.22236 339.05462,79.698711 Z"
       id="path904" />
    <path
       id="path881"
       style="fill:#ed1d24;fill-opacity:1;stroke:none;stroke-width:0.222004;stroke-linecap:butt;stroke-linejoin:miter;stroke-miterlimit:4;stroke-dasharray:none;stroke-opacity:1"
       d="m 399.96573,30.567056 v 61.790071 h 24.78556 V 30.567056 Z m -58.56194,48.986937 71.01209,71.135637 71.01383,-71.135637 H 448.02603 L 412.43175,115.00178 376.69097,79.553993 Z" />
    <path
       id="rect891"
       style="fill:#21409a;fill-opacity:1;fill-rule:evenodd;stroke:none;stroke-width:0.222004;stroke-miterlimit:4;stroke-dasharray:none;stroke-opacity:1"
       d="M 386.59426,42.787766 V 80.023481 H 398.8132 V 42.787766 Z m 39.77198,0 v 37.235715 h 7.14638 c 0,0 4.29647,-0.106855 7.6353,-5.473197 1.5694,-2.52237 3.73608,-6.207169 3.66232,-11.588831 -0.23054,-16.830909 -8.29922,-20.173687 -11.52705,-20.173687 z" />
  </g>
</svg>
